<?xml version="1.0" standalone="no"?>
<!DOCTYPE svg PUBLIC "-//W3C//DTD SVG 20010904//EN"
 "http://www.w3.org/TR/2001/REC-SVG-20010904/DTD/svg10.dtd">
<svg version="1.0" xmlns="http://www.w3.org/2000/svg"
 width="100.000000pt" height="100.000000pt" viewBox="0 0 100.000000 100.000000"
 preserveAspectRatio="xMidYMid meet">
<metadata>
Created by potrace 1.11, written by Peter Selinger 2001-2013
</metadata>
<g transform="translate(0.000000,100.000000) scale(0.100000,-0.100000)"
fill="#000000" stroke="none">
<path d="M396 949 c-69 -16 -164 -70 -217 -123 -281 -281 -103 -754 295 -783
252 -17 472 182 482 439 8 204 -113 383 -306 454 -52 18 -197 26 -254 13z
m182 -298 c45 -32 64 -75 66 -146 1 -78 -25 -132 -79 -162 -33 -19 -56 -23
-126 -23 l-87 0 1 181 1 181 96 -4 c80 -3 101 -7 128 -27z"/>
<path d="M399 603 c0 -40 0 -223 1 -235 0 -14 101 -8 134 7 60 29 82 115 50
194 -19 48 -61 71 -133 71 l-51 0 -1 -37z"/>
</g>
</svg>
